<svg width="40" height="40" viewBox="0 0 40 40" fill="none" xmlns="http://www.w3.org/2000/svg">
<path d="M20 9.26833L8.33333 18.6017V31.6667H16.6667V25H23.3333V31.6667H31.6667V19.4033C31.6668 19.1534 31.6106 18.9066 31.5024 18.6813C31.3943 18.456 31.2368 18.2579 31.0417 18.1017L20 9.26833ZM20 5L33.1233 15.5C33.7085 15.9681 34.181 16.5618 34.5059 17.2372C34.8307 17.9125 34.9996 18.6523 35 19.4017V31.6667C35 32.5507 34.6488 33.3986 34.0237 34.0237C33.3986 34.6488 32.5507 35 31.6667 35H8.33333C7.44928 35 6.60143 34.6488 5.97631 34.0237C5.35119 33.3986 5 32.5507 5 31.6667V18.6017C5.00006 18.1021 5.11243 17.6088 5.3288 17.1585C5.54516 16.7082 5.85999 16.3123 6.25 16L20 5Z" fill="#007AFF"/>
</svg>
